<?xml version="1.0" encoding="UTF-8" standalone="no"?>
<!-- Created with Inkscape (http://www.inkscape.org/) -->

<svg
   xmlns:dc="http://purl.org/dc/elements/1.1/"
   xmlns:cc="http://creativecommons.org/ns#"
   xmlns:rdf="http://www.w3.org/1999/02/22-rdf-syntax-ns#"
   xmlns:svg="http://www.w3.org/2000/svg"
   xmlns="http://www.w3.org/2000/svg"
   xmlns:sodipodi="http://sodipodi.sourceforge.net/DTD/sodipodi-0.dtd"
   xmlns:inkscape="http://www.inkscape.org/namespaces/inkscape"
   id="svg4136"
   version="1.1"
   inkscape:version="0.91 r13725"
   xml:space="preserve"
   width="195.76199"
   height="66.999893"
   viewBox="0 0 195.76199 66.999891"
   sodipodi:docname="gemalto_logo.svg"
   inkscape:export-filename="C:\Users\jkenkel\Documents\logos-GTO-Thales\gemalto_logo.png"
   inkscape:export-xdpi="72"
   inkscape:export-ydpi="72"><metadata
     id="metadata4142"><rdf:RDF><cc:Work
         rdf:about=""><dc:format>image/svg+xml</dc:format><dc:type
           rdf:resource="http://purl.org/dc/dcmitype/StillImage" /><dc:title></dc:title></cc:Work></rdf:RDF></metadata><defs
     id="defs4140" /><sodipodi:namedview
     pagecolor="#ffffff"
     bordercolor="#666666"
     borderopacity="1"
     objecttolerance="10"
     gridtolerance="10"
     guidetolerance="10"
     inkscape:pageopacity="0"
     inkscape:pageshadow="2"
     inkscape:window-width="1920"
     inkscape:window-height="1060"
     id="namedview4138"
     showgrid="false"
     inkscape:zoom="3.6383395"
     inkscape:cx="103.37037"
     inkscape:cy="30.536923"
     inkscape:window-x="1916"
     inkscape:window-y="-4"
     inkscape:window-maximized="1"
     inkscape:current-layer="g4144"
     fit-margin-top="0"
     fit-margin-left="0"
     fit-margin-right="0"
     fit-margin-bottom="0" /><g
     id="g4144"
     inkscape:groupmode="layer"
     inkscape:label="ink_ext_XXXXXX"
     transform="matrix(1.25,0,0,-1.25,-92.185875,104.47547)"><g
       id="g4146"
       transform="matrix(0.05149819,0,0,0.05149819,73.7487,27.539532)"><path
         d="m 2334.39,373.449 0,75.489 -71.6,0 c -34.24,-0.508 -36.89,27.277 -36.89,64.816 l 0,242.871 97.68,0 0,74.793 -97.68,0 0,172.472 -100.34,0 0,-515.656 c 0.4,-76.921 21.06,-114.629 123.17,-114.707 l 0,-0.078 85.66,0"
         style="fill:#231f20;fill-opacity:1;fill-rule:nonzero;stroke:none"
         id="path4148"
         inkscape:connector-curvature="0" /><path
         d="m 3041.07,774.941 c -86.09,77.082 -121.28,90.887 -156.55,93.094 -35.24,-2.207 -70.5,-16.012 -156.62,-93.094 77.04,86.145 90.87,121.465 92.98,156.711 -2.11,35.137 -15.94,70.468 -92.98,156.558 86.12,-76.9 121.38,-90.862 156.62,-92.956 35.27,2.094 70.46,16.056 156.55,92.956 -76.93,-86.09 -90.83,-121.421 -92.97,-156.558 2.14,-35.246 16.04,-70.566 92.97,-156.711"
         style="fill:#f47216;fill-opacity:1;fill-rule:nonzero;stroke:none"
         id="path4150"
         inkscape:connector-curvature="0" /><path
         d="m 2685.83,474.809 -258.23,0 0,258.191 258.23,0 0,-258.191 z m -129.29,368.988 c -146.02,0 -229.6,-100.332 -229.6,-239.473 0,-139.945 83.58,-240.152 229.6,-240.152 146.22,0 229.86,100.207 229.86,240.152 0,139.141 -83.64,239.473 -229.86,239.473"
         style="fill:#231f20;fill-opacity:1;fill-rule:nonzero;stroke:none"
         id="path4152"
         inkscape:connector-curvature="0" /><path
         d="m 1815.7,529.516 c 0,-63.36 -68.54,-86.262 -112.61,-86.262 -35.27,0 -92.39,13.223 -92.39,58.144 0,52.813 38.79,68.688 81.84,75.731 44,7.855 92.38,7.078 123.16,27.195 l 0,-74.808 z m -958.442,-10.45 -89.778,0 c -17.593,-50.195 -52.839,-75.812 -110.812,-75.812 -83.691,0 -122.398,63.398 -122.398,134.742 l 322.988,0 0,-58.93 z M 653.977,764.523 c 67.707,0 110.878,-57.175 114.367,-120.546 l -234.074,0 c 2.636,67.781 50.164,120.546 119.707,120.546 z M 220.008,455.617 c -83.649,0 -119.672,75.664 -119.672,150.465 0,75.699 30.816,158.441 119.672,158.441 87.187,0 122.324,-72.187 122.324,-150.457 0,-77.421 -33.426,-158.449 -122.324,-158.449 z m 1750.222,548.273 0,-559.921 -54.86,0 0,281.258 c -8.37,85.793 -96.91,118.57 -181.48,118.57 -100.31,0 -199.77,-34.344 -206.77,-151.461 l 100.28,0 c 4.42,49.309 44.05,72.187 100.35,72.187 40.46,0 94.15,-9.656 94.15,-61.566 0,-58.98 -64.21,-51.035 -136.38,-64.305 -70.55,-8 -145.29,-22.32 -168.08,-92.808 l 0,144.808 c 0,110.875 -56.32,153.145 -152.33,153.145 -66.01,0 -109.12,-29.031 -142.54,-75.707 -20.26,51.922 -72.24,75.707 -127.68,75.707 -72.18,0 -110.015,-30.805 -139.859,-75.707 l -2.711,0 0,63.328 -95.062,0 0,-137.445 c -28.746,85.582 -102.242,149.824 -203.281,149.824 -110.024,0 -186.36,-73.074 -211.254,-169.625 l 0,157.246 -100.391,0 0,-62.41 -1.715,0 C 315.109,820.012 263.215,843.797 205.973,843.797 76.5547,843.797 0,738.145 0,615.813 0,485.598 59.8711,376.391 204.156,376.391 c 56.328,0 108.285,29.941 136.461,80.086 l 1.715,0 0,-69.539 c 0,-74.856 -36.055,-116.172 -117.008,-116.172 -51.054,0 -96.754,9.765 -109.195,66.961 l -100.2813,0 C 24.6094,231.203 127.633,195.941 219.16,195.941 c 143.434,0 223.563,67.754 223.563,204.227 l 0,127.441 c 24.394,-98.601 98.769,-163.437 213.945,-163.437 92.715,0 172.445,48.203 200.59,135.461 l 0,-123.242 100.359,0 0,270.218 c 0,75.707 47.563,117.914 99.463,117.914 60.71,0 80.09,-33.425 80.09,-95.847 l 0,-292.285 100.32,0 0,266.718 c 0,76.555 29.14,121.414 96.78,121.414 78.39,0 82.84,-50.152 82.84,-122.246 l 0,-265.886 100.33,0 0,76.355 c 20.3,-59.305 81.84,-88.574 148.66,-88.574 50.44,0 109.88,14.961 149.79,48.828 l 0,-0.301 0.15,0.301 c 0,-19.93 15.56,-36.035 35.14,-37 l 219.3,0 0,627.89 -100.25,0"
         style="fill:#231f20;fill-opacity:1;fill-rule:nonzero;stroke:none"
         id="path4154"
         inkscape:connector-curvature="0" /><path
         d="m 948.492,160.012 c -7.84,-5.703 -23.047,-5.946 -36.586,-8.321 -13.308,-2.371 -24.707,-7.128 -24.707,-22.089 0,-13.309 11.399,-18.055 23.754,-18.055 26.613,0 37.539,16.629 37.539,27.793 l 0,20.672 z m 32.789,-62.9573 c -3.562,-2.1406 -8.082,-3.332 -14.492,-3.332 -10.453,0 -17.109,5.7031 -17.109,19.0043 -11.168,-13.0668 -26.133,-19.0043 -43.239,-19.0043 -22.332,0 -40.625,9.9803 -40.625,34.4533 0,27.793 20.668,33.73 41.571,37.773 22.332,4.278 41.343,2.852 41.343,18.059 0,17.578 -14.492,20.43 -27.324,20.43 -17.101,0 -29.695,-5.227 -30.64,-23.282 l -20.2,0 c 1.188,30.41 24.707,41.102 52.028,41.102 22.101,0 46.094,-4.988 46.094,-33.738 l 0,-63.196 c 0,-9.5 0,-13.777 6.417,-13.777 1.657,0 3.559,0.234 6.176,1.18 l 0,-15.6723"
         style="fill:#f47216;fill-opacity:1;fill-rule:nonzero;stroke:none"
         id="path4156"
         inkscape:connector-curvature="0" /><path
         d="m 1107.89,247.199 -56.55,0 0,19.004 135.66,0 0,-19.004 -56.54,0 0,-150.6248 -22.57,0 0,150.6248"
         style="fill:#f47216;fill-opacity:1;fill-rule:nonzero;stroke:none"
         id="path4158"
         inkscape:connector-curvature="0" /><path
         d="m 1202.43,266.203 20.2,0 0,-64.851 0.47,0 c 6.65,14.726 24,20.906 38.73,20.906 32.31,0 42.29,-18.535 42.29,-44.903 l 0,-80.7808 -20.2,0 0,83.1558 c 0,14.969 -9.5,24.708 -24.95,24.708 -24.46,0 -36.34,-16.399 -36.34,-38.489 l 0,-69.3748 -20.2,0 0,169.6288"
         style="fill:#f47216;fill-opacity:1;fill-rule:nonzero;stroke:none"
         id="path4160"
         inkscape:connector-curvature="0" /><path
         d="m 1410.54,160.012 c -7.84,-5.703 -23.04,-5.946 -36.58,-8.321 -13.31,-2.371 -24.71,-7.128 -24.71,-22.089 0,-13.309 11.4,-18.055 23.75,-18.055 26.62,0 37.54,16.629 37.54,27.793 l 0,20.672 z m 32.79,-62.9573 c -3.57,-2.1406 -8.08,-3.332 -14.49,-3.332 -10.45,0 -17.11,5.7031 -17.11,19.0043 -11.17,-13.0668 -26.14,-19.0043 -43.24,-19.0043 -22.33,0 -40.62,9.9803 -40.62,34.4533 0,27.793 20.67,33.73 41.57,37.773 22.33,4.278 41.34,2.852 41.34,18.059 0,17.578 -14.49,20.43 -27.32,20.43 -17.11,0 -29.7,-5.227 -30.65,-23.282 l -20.19,0 c 1.18,30.41 24.71,41.102 52.03,41.102 22.09,0 46.09,-4.988 46.09,-33.738 l 0,-63.196 c 0,-9.5 0,-13.777 6.42,-13.777 1.66,0 3.55,0.234 6.17,1.18 l 0,-15.6723"
         style="fill:#f47216;fill-opacity:1;fill-rule:nonzero;stroke:none"
         id="path4162"
         inkscape:connector-curvature="0" /><path
         d="m 1463.28,96.5742 20.1875,0 0,169.629 -20.1875,0 0,-169.629 z"
         style="fill:#f47216;fill-opacity:1;fill-rule:nonzero;stroke:none"
         id="path4164"
         inkscape:connector-curvature="0" /><path
         d="m 1600.11,169.75 c -0.96,19.246 -15.45,34.688 -35.4,34.688 -21.14,0 -33.74,-15.918 -35.17,-34.688 l 70.57,0 z m 19.48,-34.211 c -5.47,-27.09 -24.95,-41.8163 -52.51,-41.8163 -39.2,0 -57.73,27.0823 -58.91,64.6213 0,36.824 24.22,63.914 57.73,63.914 43.48,0 56.78,-40.633 55.59,-70.332 l -91.95,0 c -0.71,-21.375 11.41,-40.379 38.25,-40.379 16.64,0 28.28,8.074 31.84,23.992 l 19.96,0"
         style="fill:#f47216;fill-opacity:1;fill-rule:nonzero;stroke:none"
         id="path4166"
         inkscape:connector-curvature="0" /><path
         d="m 1654.74,135.297 c 0.71,-18.047 16.39,-23.75 33.03,-23.75 12.58,0 29.69,2.851 29.69,18.289 0,15.684 -19.96,18.293 -40.15,22.805 -19.95,4.519 -40.15,11.172 -40.15,34.687 0,24.707 24.47,34.93 45.85,34.93 27.09,0 48.7,-8.555 50.37,-38.496 l -20.19,0 c -1.43,15.683 -15.21,20.676 -28.52,20.676 -12.11,0 -26.13,-3.333 -26.13,-15.684 0,-14.492 21.38,-16.867 40.15,-21.379 20.2,-4.512 40.15,-11.172 40.15,-34.922 0,-29.226 -27.32,-38.7303 -52.27,-38.7303 -27.55,0 -50.84,11.1643 -52.03,41.5743 l 20.2,0"
         style="fill:#f47216;fill-opacity:1;fill-rule:nonzero;stroke:none"
         id="path4168"
         inkscape:connector-curvature="0" /><path
         d="m 1910.6,179.965 c -3.09,15.449 -13.78,24.473 -30.41,24.473 -29.22,0 -38.25,-23.047 -38.25,-47.989 0,-22.57 10.21,-44.902 35.87,-44.902 19.49,0 31.13,11.394 33.73,29.93 l 20.68,0 c -4.51,-29.93 -23.28,-47.7543 -54.17,-47.7543 -37.54,0 -57.49,26.1323 -57.49,62.7263 0,36.824 19,65.809 57.97,65.809 27.79,0 50.12,-13.067 52.98,-42.293 l -20.91,0"
         style="fill:#f47216;fill-opacity:1;fill-rule:nonzero;stroke:none"
         id="path4170"
         inkscape:connector-curvature="0" /><path
         d="m 2007.76,111.547 c 21.14,0 38.25,16.629 38.25,46.328 0,29.93 -17.11,46.563 -38.25,46.563 -21.15,0 -38.26,-16.633 -38.26,-46.563 0,-29.699 17.11,-46.328 38.26,-46.328 z m 0,110.711 c 38.96,0 59.63,-28.27 59.63,-64.383 0,-35.879 -20.67,-64.1523 -59.63,-64.1523 -38.97,0 -59.63,28.2733 -59.63,64.1523 0,36.113 20.66,64.383 59.63,64.383"
         style="fill:#f47216;fill-opacity:1;fill-rule:nonzero;stroke:none"
         id="path4172"
         inkscape:connector-curvature="0" /><path
         d="m 2091.13,219.406 19.01,0 0,-18.054 0.48,0 c 9.02,13.777 22.8,20.906 39.67,20.906 14.97,0 28.75,-5.945 33.74,-20.906 8.32,13.066 22.81,20.906 38.48,20.906 24.47,0 40.87,-10.223 40.87,-35.645 l 0,-90.0388 -20.19,0 0,80.5388 c 0,15.203 -4.05,27.325 -23.76,27.325 -19.49,0 -32.07,-12.356 -32.07,-31.36 l 0,-76.5038 -20.2,0 0,80.5388 c 0,15.918 -4.99,27.325 -23.05,27.325 -23.99,0 -32.78,-22.102 -32.78,-31.36 l 0,-76.5038 -20.2,0 0,122.8318"
         style="fill:#f47216;fill-opacity:1;fill-rule:nonzero;stroke:none"
         id="path4174"
         inkscape:connector-curvature="0" /><path
         d="m 2351.51,204.438 c -27.09,0 -37.54,-23.282 -37.54,-46.329 0,-24.23 10.92,-46.562 38.72,-46.562 27.56,0 36.82,23.516 36.82,47.508 0,23.047 -11.87,45.383 -38,45.383 z m -57.03,14.968 20.2,0 0,-16.629 0.48,0 c 6.65,13.536 22.32,19.481 39.2,19.481 37.77,0 56.54,-29.942 56.54,-64.629 0,-34.688 -18.53,-63.9063 -56.07,-63.9063 -12.59,0 -30.65,4.7578 -39.67,19.2503 l -0.48,0 0,-63.4417 -20.2,0 0,169.8747"
         style="fill:#f47216;fill-opacity:1;fill-rule:nonzero;stroke:none"
         id="path4176"
         inkscape:connector-curvature="0" /><path
         d="m 2510.67,160.012 c -7.85,-5.703 -23.05,-5.946 -36.6,-8.321 -13.3,-2.371 -24.7,-7.128 -24.7,-22.089 0,-13.309 11.4,-18.055 23.76,-18.055 26.61,0 37.54,16.629 37.54,27.793 l 0,20.672 z m 32.78,-62.9573 c -3.57,-2.1406 -8.08,-3.332 -14.49,-3.332 -10.45,0 -17.1,5.7031 -17.1,19.0043 -11.17,-13.0668 -26.14,-19.0043 -43.24,-19.0043 -22.34,0 -40.63,9.9803 -40.63,34.4533 0,27.793 20.66,33.73 41.57,37.773 22.34,4.278 41.34,2.852 41.34,18.059 0,17.578 -14.49,20.43 -27.31,20.43 -17.11,0 -29.7,-5.227 -30.66,-23.282 l -20.19,0 c 1.19,30.41 24.71,41.102 52.03,41.102 22.1,0 46.09,-4.988 46.09,-33.738 l 0,-63.196 c 0,-9.5 0,-13.777 6.42,-13.777 1.66,0 3.56,0.234 6.17,1.18 l 0,-15.6723"
         style="fill:#f47216;fill-opacity:1;fill-rule:nonzero;stroke:none"
         id="path4178"
         inkscape:connector-curvature="0" /><path
         d="m 2562.21,219.406 19,0 0,-19.48 0.48,0 c 8.56,15.203 22.34,22.332 39.91,22.332 32.32,0 42.29,-18.535 42.29,-44.903 l 0,-80.7808 -20.19,0 0,83.1558 c 0,14.969 -9.51,24.708 -24.95,24.708 -24.47,0 -36.35,-16.399 -36.35,-38.489 l 0,-69.3748 -20.19,0 0,122.8318"
         style="fill:#f47216;fill-opacity:1;fill-rule:nonzero;stroke:none"
         id="path4180"
         inkscape:connector-curvature="0" /><path
         d="m 2742.53,80.1797 c -9.27,-23.9883 -17.59,-32.7813 -35.64,-32.7813 -4.75,0 -9.51,0.4727 -14.02,2.1329 l 0,18.539 c 3.8,-1.1914 7.84,-2.8515 11.88,-2.8515 8.32,0 12.83,4.0312 16.63,11.1601 l 8.32,20.9102 -48.7,122.1169 22.8,0 35.88,-100.496 0.47,0 34.45,100.496 21.38,0 -53.45,-139.2263"
         style="fill:#f47216;fill-opacity:1;fill-rule:nonzero;stroke:none"
         id="path4182"
         inkscape:connector-curvature="0" /></g></g></svg>