<?xml version="1.0" encoding="UTF-8" standalone="no"?>
<!-- Created with Inkscape (http://www.inkscape.org/) -->

<svg
   xmlns:dc="http://purl.org/dc/elements/1.1/"
   xmlns:cc="http://creativecommons.org/ns#"
   xmlns:rdf="http://www.w3.org/1999/02/22-rdf-syntax-ns#"
   xmlns:svg="http://www.w3.org/2000/svg"
   xmlns="http://www.w3.org/2000/svg"
   xmlns:sodipodi="http://sodipodi.sourceforge.net/DTD/sodipodi-0.dtd"
   xmlns:inkscape="http://www.inkscape.org/namespaces/inkscape"
   id="svg4136"
   version="1.1"
   inkscape:version="0.91 r13725"
   xml:space="preserve"
   width="436.61249"
   height="51.724998"
   viewBox="0 0 436.61249 51.724998"
   sodipodi:docname="Thales_LOGO_RGB.svg"><metadata
     id="metadata4142"><rdf:RDF><cc:Work
         rdf:about=""><dc:format>image/svg+xml</dc:format><dc:type
           rdf:resource="http://purl.org/dc/dcmitype/StillImage" /><dc:title></dc:title></cc:Work></rdf:RDF></metadata><defs
     id="defs4140" /><sodipodi:namedview
     pagecolor="#ffffff"
     bordercolor="#666666"
     borderopacity="1"
     objecttolerance="10"
     gridtolerance="10"
     guidetolerance="10"
     inkscape:pageopacity="0"
     inkscape:pageshadow="2"
     inkscape:window-width="1920"
     inkscape:window-height="1016"
     id="namedview4138"
     showgrid="false"
     inkscape:zoom="3.259183"
     inkscape:cx="218.30624"
     inkscape:cy="25.862499"
     inkscape:window-x="-4"
     inkscape:window-y="-4"
     inkscape:window-maximized="1"
     inkscape:current-layer="g4144" /><g
     id="g4144"
     inkscape:groupmode="layer"
     inkscape:label="ink_ext_XXXXXX"
     transform="matrix(1.25,0,0,-1.25,0,51.725)"><g
       id="g4146"
       transform="scale(0.1,0.1)"><path
         d="m 3492.86,110.078 c 0,-56.2108 -16.33,-72.7928 -61.1,-86.3085 C 3383.25,9.08203 3297.15,0 3245.86,0 3185.2,0 3109.61,3.94531 3045.12,18.7305 l 0,64.9804 355.86,0 0,88.3011 -251.87,0 c -75.71,0 -103.91,20.84 -103.91,94.785 l 0,38.613 c 0,58.281 17.23,75.86 64.57,88.098 47.62,12.32 125.66,20.281 176.6,20.281 61.84,0 136.17,-4.824 200.86,-19.148 l 0,-65.012 -350.15,0 0,-74.68 251.87,0 c 75.74,0 103.91,-20.418 103.91,-94.363 l 0,-50.508"
         style="fill:#29367a;fill-opacity:1;fill-rule:nonzero;stroke:none"
         id="path4148"
         inkscape:connector-curvature="0" /><path
         d="M 2885.9,18.6328 C 2812.15,4.00391 2737.9,0 2665.98,0 2594.07,0 2518.44,4.00391 2444.69,18.6328 l 0,376.0082 c 73.75,14.617 148.48,19.148 220.39,19.148 71.92,0 145.32,-4.531 219.07,-19.148 l 0,-67.09 -333.25,0 0,-75.11 217,0 0,-78.007 -217,0 0,-88.7309 335,0 0,-67.0703"
         style="fill:#29367a;fill-opacity:1;fill-rule:nonzero;stroke:none"
         id="path4150"
         inkscape:connector-curvature="0" /><path
         d="M 2317.47,18.6328 C 2251.29,3.94531 2184.54,0 2120.4,0 2056.25,0 1988.17,3.94531 1922,18.6328 l 0,385.8012 106.21,0 0,-313.7699 289.26,0 0,-72.0313"
         style="fill:#29367a;fill-opacity:1;fill-rule:nonzero;stroke:none"
         id="path4152"
         inkscape:connector-curvature="0" /><path
         d="M 1794.62,16.2695 C 1759.22,6.11328 1712.47,2.5 1677.66,1.89453 L 1514.1,332.285 l -9.14,0 L 1341.45,1.89453 C 1306.56,2.5 1265.51,6.11328 1230.16,16.2695 l 207.11,387.9885 147.65,0 209.7,-387.9885"
         style="fill:#29367a;fill-opacity:1;fill-rule:nonzero;stroke:none"
         id="path4154"
         inkscape:connector-curvature="0" /><path
         d="m 1578.83,114.863 c 0,-37.9489 -31.25,-68.7497 -69.22,-68.7497 -38.01,0 -68.75,30.8398 -68.75,68.7497 0,37.93 30.82,68.77 68.75,68.77 37.89,0 69.22,-30.742 69.22,-68.77"
         style="fill:#2a3074;fill-opacity:1;fill-rule:nonzero;stroke:none"
         id="path4156"
         inkscape:connector-curvature="0" /><path
         d="M 1102.11,15.8398 C 1068.2,6.09375 1031.95,2.53906 995.859,1.89453 l 0,168.55447 -263.867,0 0,-168.55447 C 695.898,2.53906 659.688,6.09375 625.781,15.8398 l 0,381.1912 c 33.907,9.754 70.117,13.313 106.211,13.965 l 0,-162.676 263.867,0 0,162.676 c 36.091,-0.652 72.301,-4.211 106.251,-13.965 l 0,-381.1912"
         style="fill:#29367a;fill-opacity:1;fill-rule:nonzero;stroke:none"
         id="path4158"
         inkscape:connector-curvature="0" /><path
         d="m 477.813,326.582 -186.329,0 0,-317.92966 -105.156,0 0,317.92966 -186.328,0 0,67.852 c 80.2344,14.609 160.82,19.152 239.18,19.152 78.203,0 158.554,-4.563 238.633,-19.152 l 0,-67.852"
         style="fill:#29367a;fill-opacity:1;fill-rule:nonzero;stroke:none"
         id="path4160"
         inkscape:connector-curvature="0" /><path
         d="m 3492.86,110.078 c 0,-56.2108 -16.33,-72.7928 -61.1,-86.3085 C 3383.25,9.08203 3297.15,0 3245.86,0 3185.2,0 3109.61,3.94531 3045.12,18.7305 l 0,64.9804 355.86,0 0,88.3011 -251.87,0 c -75.71,0 -103.91,20.84 -103.91,94.785 l 0,38.613 c 0,58.281 17.23,75.86 64.57,88.098 47.62,12.32 125.66,20.281 176.6,20.281 61.84,0 136.17,-4.824 200.86,-19.148 l 0,-65.012 -350.15,0 0,-74.68 251.87,0 c 75.74,0 103.91,-20.418 103.91,-94.363 l 0,-50.508"
         style="fill:#29367a;fill-opacity:1;fill-rule:nonzero;stroke:none"
         id="path4162"
         inkscape:connector-curvature="0" /><path
         d="M 2885.9,18.6328 C 2812.15,4.00391 2737.9,0 2665.98,0 2594.07,0 2518.44,4.00391 2444.69,18.6328 l 0,376.0082 c 73.75,14.617 148.48,19.148 220.39,19.148 71.92,0 145.32,-4.531 219.07,-19.148 l 0,-67.09 -333.25,0 0,-75.11 217,0 0,-78.007 -217,0 0,-88.7309 335,0 0,-67.0703"
         style="fill:#29367a;fill-opacity:1;fill-rule:nonzero;stroke:none"
         id="path4164"
         inkscape:connector-curvature="0" /><path
         d="M 2317.47,18.6328 C 2251.29,3.94531 2184.54,0 2120.4,0 2056.25,0 1988.17,3.94531 1922,18.6328 l 0,385.8012 106.21,0 0,-313.7699 289.26,0 0,-72.0313"
         style="fill:#29367a;fill-opacity:1;fill-rule:nonzero;stroke:none"
         id="path4166"
         inkscape:connector-curvature="0" /><path
         d="M 1794.62,16.2695 C 1759.22,6.11328 1712.47,2.5 1677.66,1.89453 L 1514.1,332.285 l -9.14,0 L 1341.45,1.89453 C 1306.56,2.5 1265.51,6.11328 1230.16,16.2695 l 207.11,387.9885 147.65,0 209.7,-387.9885"
         style="fill:#29367a;fill-opacity:1;fill-rule:nonzero;stroke:none"
         id="path4168"
         inkscape:connector-curvature="0" /><path
         d="m 1578.83,114.863 c 0,-37.9489 -31.25,-68.7497 -69.22,-68.7497 -38.01,0 -68.75,30.8398 -68.75,68.7497 0,37.93 30.82,68.77 68.75,68.77 37.89,0 69.22,-30.742 69.22,-68.77"
         style="fill:#63c8d3;fill-opacity:1;fill-rule:nonzero;stroke:none"
         id="path4170"
         inkscape:connector-curvature="0" /><path
         d="M 1102.11,15.8398 C 1068.2,6.09375 1031.95,2.53906 995.859,1.89453 l 0,168.55447 -263.867,0 0,-168.55447 C 695.898,2.53906 659.688,6.09375 625.781,15.8398 l 0,381.1912 c 33.907,9.754 70.117,13.313 106.211,13.965 l 0,-162.676 263.867,0 0,162.676 c 36.091,-0.652 72.301,-4.211 106.251,-13.965 l 0,-381.1912"
         style="fill:#29367a;fill-opacity:1;fill-rule:nonzero;stroke:none"
         id="path4172"
         inkscape:connector-curvature="0" /><path
         d="m 477.813,326.582 -186.329,0 0,-317.92966 -105.156,0 0,317.92966 -186.328,0 0,67.852 c 80.2344,14.609 160.82,19.152 239.18,19.152 78.203,0 158.554,-4.563 238.633,-19.152 l 0,-67.852"
         style="fill:#29367a;fill-opacity:1;fill-rule:nonzero;stroke:none"
         id="path4174"
         inkscape:connector-curvature="0" /></g></g></svg>